HIERARCHY
ROOT Hips
{
  OFFSET 53.8358 54.3591 -1.9226
  CHANNELS 6 Xposition Yposition Zposition Zrotation Xrotation Yrotation
  JOINT spine
  {
    OFFSET 0 7.96568 0.458067
    CHANNELS 3 Zrotation Xrotation Yrotation
    JOINT spine1
    {
      OFFSET 0 10.2431 0
      CHANNELS 3 Zrotation Xrotation Yrotation
      JOINT spine2
      {
        OFFSET 0 9.81475 0
        CHANNELS 3 Zrotation Xrotation Yrotation
        JOINT Neck
        {
          OFFSET 0 25.1986 1.20138
          CHANNELS 3 Zrotation Xrotation Yrotation
          JOINT Head
          {
            OFFSET 0 7.61315 0
            CHANNELS 3 Zrotation Xrotation Yrotation
            End Site
            {
              OFFSET 0 18.4281 -6.07733
            }
          }
        }
        JOINT RightShoulder
        {
          OFFSET -4.1327 10.5992 -0.575451
          CHANNELS 3 Zrotation Xrotation Yrotation
          JOINT RightArm
          {
            OFFSET 0 13.9018 0
            CHANNELS 3 Zrotation Xrotation Yrotation
            JOINT RightArmRoll
            {
              OFFSET 0 7.01788 0
              CHANNELS 3 Zrotation Xrotation Yrotation
              JOINT RightForeArm
              {
                OFFSET 0 20.4406 0
                CHANNELS 3 Zrotation Xrotation Yrotation
                JOINT RightForeArmRoll
                {
                  OFFSET 0 7.87515 0
                  CHANNELS 3 Zrotation Xrotation Yrotation
                  JOINT RightHand
                  {
                    OFFSET 0 15.8037 0
                    CHANNELS 3 Zrotation Xrotation Yrotation
                    End Site
                    {
                      OFFSET 0 0 0
                    }
                  }
                }
              }
            }
          }
        }
        JOINT LeftShoulder
        {
          OFFSET 4.1327 10.5992 -0.575451
          CHANNELS 3 Zrotation Xrotation Yrotation
          JOINT LeftArm
          {
            OFFSET 0 13.9018 0
            CHANNELS 3 Zrotation Xrotation Yrotation
            JOINT LeftArmRoll
            {
              OFFSET 0 7.01788 0
              CHANNELS 3 Zrotation Xrotation Yrotation
              JOINT LeftForeArm
              {
                OFFSET 0 20.4406 0
                CHANNELS 3 Zrotation Xrotation Yrotation
                JOINT LeftForeArmRoll
                {
                  OFFSET 0 7.87516 0
                  CHANNELS 3 Zrotation Xrotation Yrotation
                  JOINT LeftHand
                  {
                    OFFSET 0 15.8037 0
                    CHANNELS 3 Zrotation Xrotation Yrotation
                    End Site
                    {
                      OFFSET 0 0 0
                    }
                  }
                }
              }
            }
          }
        }
      }
    }
  }
  JOINT RightUpLeg
  {
    OFFSET -7.06048 -1.2947 -1.0861
    CHANNELS 3 Zrotation Xrotation Yrotation
    JOINT RightUpLegRoll
    {
      OFFSET 0 18.5308 0
      CHANNELS 3 Zrotation Xrotation Yrotation
      JOINT RightLeg
      {
        OFFSET 0 -22.9476 0
        CHANNELS 3 Zrotation Xrotation Yrotation
        JOINT RightLegRoll
        {
          OFFSET 0 23.0226 0
          CHANNELS 3 Zrotation Xrotation Yrotation
          JOINT RightFoot
          {
            OFFSET 0 19.1625 0
            CHANNELS 3 Zrotation Xrotation Yrotation
            JOINT RightToeBase
            {
              OFFSET 0 16.0188 0
              CHANNELS 3 Zrotation Xrotation Yrotation
              End Site
              {
                OFFSET 0.00678979 7.75782 -0.894206
              }
            }
          }
        }
      }
    }
  }
  JOINT LeftUpLeg
  {
    OFFSET 7.06048 -1.2947 -1.0861
    CHANNELS 3 Zrotation Xrotation Yrotation
    JOINT LeftUpLegRoll
    {
      OFFSET 0 18.5309 0
      CHANNELS 3 Zrotation Xrotation Yrotation
      JOINT LeftLeg
      {
        OFFSET 0 22.9475 0
        CHANNELS 3 Zrotation Xrotation Yrotation
        JOINT LeftLegRoll
        {
          OFFSET 0 23.2355 0
          CHANNELS 3 Zrotation Xrotation Yrotation
          JOINT LeftFoot
          {
            OFFSET 0 18.9496 0
            CHANNELS 3 Zrotation Xrotation Yrotation
            JOINT LeftToeBase
            {
              OFFSET 0 16.0188 0
              CHANNELS 3 Zrotation Xrotation Yrotation
              End Site
              {
                OFFSET -0.0304289 7.75782 -0.894206
              }
            }
          }
        }
      }
    }
  }
}
MOTION
Frames: 13
Frame Time: 0.00208333
53.5184 97.1046 34.7258 0.448612 -3.23328 1.7056 -0.120074 -0.949364 -0.172948 -0.237162 2.10443 -0.317105 -0.233388 3.7495 -0.313508 -3.9757 8.37144 0.154911 5.70692 9.84706 -0.67406 69.1624 -4.00705 -3.23539 105.753 21.044 0.852644 -5.1684e-015 -6.36111e-015 -0 10.5462 17.0195 -2.53173 5.97744e-006 -3.40164e-006 -2.99999 8.02894 -4.95145 0.697685 -62.7494 -5.61825 3.70143 -110.028 21.1779 7.75483 8.85011e-006 -2.62089e-006 3.04584e-006 -14.0357 14.4919 2.45856 5.12419e-006 -6.30407e-006 3.00001 -8.0289 -4.95141 -0.697699 177.226 -0.945482 3.01507 180 7.01524e-015 178.829 177.96 5.98296 179.669 3.02929e-006 2.93655e-007 0.0522245 -18.3269 67.4099 19.0495 8.13442 25.2328 -3.48685 -175.894 1.47272 -0.997045 4.54188e-006 -4.6773e-006 -1.12146 -2.16884 -9.83051 0.07759 -1.36568e-006 -1.61706e-006 -0.191423 20.0366 69.5005 -20.867 -8.13123 25.233 3.48549 
53.5264 97.1086 34.7256 0.450225 -3.23964 1.70446 -0.119726 -0.945962 -0.172374 -0.237061 2.11123 -0.31701 -0.233283 3.7563 -0.313406 -3.96462 8.34515 0.149455 5.69443 9.86758 -0.677419 69.1684 -4.01427 -3.23942 105.751 21.0624 0.842808 -5.96354e-016 9.54166e-015 2.38542e-015 10.5507 17.0078 -2.53088 5.97744e-006 -3.40164e-006 -2.99999 8.02894 -4.95145 0.697685 -62.7496 -5.60428 3.69341 -110.054 21.2166 7.78912 8.85011e-006 -2.62089e-006 3.04584e-006 -14.0508 14.4261 2.44908 5.12419e-006 -6.30407e-006 3.00001 -8.0289 -4.95141 -0.697699 177.227 -0.942231 3.012 180 7.01524e-015 178.829 177.965 5.99551 179.669 3.02929e-006 2.93655e-007 0.0522245 -18.3286 67.412 19.0514 8.13442 25.2328 -3.48685 -175.897 1.47258 -0.994317 4.54188e-006 -4.6773e-006 -1.12146 -2.16677 -9.83733 0.0776024 -1.36568e-006 -1.61706e-006 -0.19142 20.0354 69.4993 -20.8658 -8.13123 25.233 3.48549 
53.5231 97.1063 34.7118 0.452123 -3.24632 1.7036 -0.119412 -0.942493 -0.17173 -0.237062 2.11817 -0.316807 -0.233277 3.76324 -0.313196 -3.95283 8.31837 0.143665 5.68099 9.88844 -0.680966 69.1749 -4.02182 -3.24364 105.749 21.0805 0.83228 -9.54166e-015 -3.18055e-015 -7.95139e-016 10.5559 16.9977 -2.5303 5.97744e-006 -3.40164e-006 -2.99999 8.02894 -4.95145 0.697685 -62.7498 -5.5899 3.68515 -110.08 21.2557 7.82345 8.85011e-006 -2.62089e-006 3.04584e-006 -14.0657 14.3601 2.43959 5.12419e-006 -6.30407e-006 3.00001 -8.0289 -4.95141 -0.697699 177.228 -0.939367 3.00932 180 7.01524e-015 178.829 177.97 6.00823 179.669 3.02929e-006 2.93655e-007 0.0522245 -18.3306 67.4144 19.0535 8.13442 25.2328 -3.48685 -175.901 1.47186 -0.991203 4.54188e-006 -4.6773e-006 -1.12146 -2.16454 -9.84375 0.077615 -1.36568e-006 -1.61706e-006 -0.191415 20.0341 69.4979 -20.8643 -8.13123 25.233 3.48549 
53.5053 97.1028 34.707 0.45422 -3.25322 1.70292 -0.119121 -0.938977 -0.171038 -0.237134 2.1252 -0.316529 -0.23334 3.77027 -0.312909 -3.94052 8.29123 0.137641 5.66689 9.90954 -0.684645 69.1818 -4.0296 -3.248 105.745 21.0985 0.821265 3.97569e-015 3.18055e-015 3.18055e-015 10.5617 16.9887 -2.52991 5.97744e-006 -3.40164e-006 -2.99999 8.02894 -4.95145 0.697685 -62.7501 -5.57522 3.67673 -110.107 21.2951 7.85782 8.85011e-006 -2.62089e-006 3.04584e-006 -14.0805 14.294 2.43008 5.12419e-006 -6.30407e-006 3.00001 -8.0289 -4.95141 -0.697699 177.228 -0.936773 3.00691 180 7.01524e-015 178.829 177.975 6.02116 179.669 3.02929e-006 2.93655e-007 0.0522245 -18.3326 67.417 19.0557 8.13442 25.2328 -3.48685 -175.904 1.47074 -0.987821 4.54188e-006 -4.6773e-006 -1.12146 -2.16218 -9.84988 0.0776277 -1.36568e-006 -1.61706e-006 -0.19141 20.0326 69.4964 -20.8628 -8.13123 25.233 3.48549 
53.5153 97.1036 34.7199 0.456431 -3.26025 1.70236 -0.118843 -0.935435 -0.170318 -0.237247 2.13229 -0.316208 -0.233442 3.77735 -0.312579 -3.92793 8.26389 0.131484 5.65242 9.93078 -0.688399 69.1888 -4.0375 -3.25243 105.742 21.1163 0.809971 -5.36719e-015 -6.36111e-015 7.95139e-016 10.5679 16.9803 -2.52963 5.97744e-006 -3.40164e-006 -2.99999 8.02894 -4.95145 0.697685 -62.7504 -5.56037 3.66821 -110.134 21.3348 7.89221 8.85011e-006 -2.62089e-006 3.04584e-006 -14.0952 14.2277 2.42057 5.12419e-006 -6.30407e-006 3.00001 -8.0289 -4.95141 -0.697699 177.228 -0.934333 3.00465 180 7.01525e-015 178.829 177.98 6.03414 179.669 3.02929e-006 2.93655e-007 0.0522245 -18.3348 67.4197 19.058 8.13442 25.2328 -3.48685 -175.909 1.46939 -0.984286 4.54188e-006 -4.6773e-006 -1.12146 -2.15976 -9.85585 0.0776405 -1.36568e-006 -1.61706e-006 -0.191404 20.0311 69.4949 -20.8612 -8.13123 25.233 3.48549 
53.5239 97.1051 34.7161 0.458671 -3.26732 1.70183 -0.118569 -0.931885 -0.169592 -0.23737 2.13938 -0.315877 -0.233554 3.78445 -0.312237 -3.91527 8.23651 0.125294 5.63786 9.95206 -0.692173 69.1959 -4.04544 -3.25689 105.738 21.1341 0.798605 9.93923e-016 -9.54166e-015 1.59028e-015 10.5741 16.972 -2.52937 5.97744e-006 -3.40164e-006 -2.99999 8.02894 -4.95145 0.697685 -62.7507 -5.54548 3.65967 -110.16 21.3744 7.92662 8.85011e-006 -2.62089e-006 3.04584e-006 -14.11 14.1615 2.41107 5.12419e-006 -6.30407e-006 3.00001 -8.0289 -4.95141 -0.697699 177.228 -0.931931 3.00243 180 7.01525e-015 178.83 177.985 6.04716 179.669 3.02929e-006 2.93655e-007 0.0522245 -18.3369 67.4224 19.0604 8.13442 25.2328 -3.48685 -175.913 1.46798 -0.980711 4.54188e-006 -4.6773e-006 -1.12146 -2.15732 -9.86178 0.0776532 -1.36568e-006 -1.61706e-006 -0.191398 20.0296 69.4933 -20.8595 -8.13123 25.233 3.48549 
53.5308 97.1046 34.706 0.460853 -3.27431 1.70124 -0.118288 -0.928349 -0.168879 -0.237473 2.14646 -0.315567 -0.233646 3.79152 -0.311918 -3.90276 8.20922 0.119171 5.62348 9.97327 -0.695909 69.2029 -4.05331 -3.2613 105.734 21.152 0.787374 3.67752e-014 -3.18055e-015 1.35174e-014 10.5801 16.9635 -2.52906 5.97744e-006 -3.40164e-006 -2.99999 8.02894 -4.95145 0.697685 -62.751 -5.53067 3.65118 -110.187 21.414 7.96106 8.85011e-006 -2.62089e-006 3.04584e-006 -14.1248 14.0953 2.40158 5.12419e-006 -6.30407e-006 3.00001 -8.0289 -4.95141 -0.697699 177.229 -0.929453 3.00013 180 7.01525e-015 178.83 177.99 6.06013 179.669 3.02929e-006 2.93655e-007 0.0522245 -18.3391 67.4251 19.0627 8.13442 25.2328 -3.48685 -175.917 1.46669 -0.977214 4.54188e-006 -4.6773e-006 -1.12146 -2.15491 -9.8678 0.077666 -1.36568e-006 -1.61706e-006 -0.191392 20.0281 69.4918 -20.858 -8.13123 25.233 3.48549 
53.5242 97.1081 34.7103 0.462893 -3.28115 1.70051 -0.11799 -0.924847 -0.168201 -0.237525 2.15346 -0.31531 -0.233689 3.79852 -0.311653 -3.89063 8.18218 0.113218 5.60959 9.9943 -0.699553 69.2096 -4.06102 -3.26562 105.731 21.17 0.776487 5.36719e-015 -3.18055e-015 4.77083e-015 10.5858 16.9542 -2.52862 5.97744e-006 -3.40164e-006 -2.99999 8.02894 -4.95145 0.697685 -62.7512 -5.51607 3.64281 -110.214 21.4533 7.99551 8.85011e-006 -2.62089e-006 3.04584e-006 -14.1398 14.0292 2.39211 5.12419e-006 -6.30407e-006 3.00001 -8.0289 -4.95141 -0.697699 177.229 -0.926781 2.99764 180 7.01525e-015 178.83 177.995 6.073 179.669 3.02929e-006 2.93655e-007 0.0522245 -18.3411 67.4277 19.0649 8.13442 25.2328 -3.48685 -175.921 1.46568 -0.973909 4.54188e-006 -4.6773e-006 -1.12146 -2.15259 -9.87401 0.0776786 -1.36568e-006 -1.61706e-006 -0.191387 20.0267 69.4903 -20.8564 -8.13123 25.233 3.48549 
53.5035 97.103 34.7061 0.464704 -3.28774 1.69957 -0.117666 -0.921398 -0.167578 -0.237496 2.16036 -0.31514 -0.233654 3.80542 -0.311475 -3.87908 8.15555 0.107533 5.59645 10.0151 -0.703047 69.216 -4.06847 -3.26979 105.729 21.1882 0.766151 -2.18663e-015 3.18055e-015 1.59028e-015 10.5908 16.9436 -2.52796 5.97744e-006 -3.40164e-006 -2.99999 8.02894 -4.95145 0.697685 -62.7514 -5.50181 3.63462 -110.241 21.4922 8.02997 8.85011e-006 -2.62089e-006 3.04584e-006 -14.1548 13.9632 2.38268 5.12419e-006 -6.30407e-006 3.00001 -8.0289 -4.95141 -0.697699 177.23 -0.923801 2.99484 180 7.01525e-015 178.83 178.001 6.08567 179.669 3.02929e-006 2.93655e-007 0.0522245 -18.343 67.43 19.0669 8.13442 25.2328 -3.48685 -175.924 1.46513 -0.970911 4.54188e-006 -4.6773e-006 -1.12146 -2.1504 -9.88055 0.0776912 -1.36568e-006 -1.61706e-006 -0.191383 20.0254 69.489 -20.855 -8.13123 25.233 3.48549 
53.521 97.1019 34.7002 0.466201 -3.29396 1.69832 -0.117306 -0.918024 -0.167031 -0.237355 2.16711 -0.315088 -0.233509 3.81217 -0.311417 -3.86835 8.12946 0.102217 5.58435 10.0354 -0.706335 69.2218 -4.07556 -3.27374 105.728 21.2067 0.756572 7.95139e-016 -3.18055e-015 2.38542e-015 10.5949 16.9313 -2.52701 5.97744e-006 -3.40164e-006 -2.99999 8.02894 -4.95145 0.697685 -62.7515 -5.488 3.6267 -110.267 21.5305 8.06443 8.85011e-006 -2.62089e-006 3.04584e-006 -14.1701 13.8975 2.37329 5.12419e-006 -6.30407e-006 3.00001 -8.0289 -4.95141 -0.697699 177.231 -0.920397 2.99162 180 7.01525e-015 178.83 178.006 6.0981 179.669 3.02929e-006 2.93655e-007 0.0522245 -18.3446 67.432 19.0686 8.13442 25.2328 -3.48685 -175.927 1.46522 -0.968336 4.54188e-006 -4.6773e-006 -1.12146 -2.1484 -9.88753 0.0777036 -1.36568e-006 -1.61706e-006 -0.19138 20.0242 69.4878 -20.8538 -8.13123 25.233 3.48549 
53.5166 97.1031 34.7021 0.467299 -3.29974 1.69669 -0.1169 -0.914743 -0.166581 -0.23707 2.17367 -0.315186 -0.233227 3.81873 -0.311513 -3.85864 8.10406 0.0973715 5.57358 10.0553 -0.70936 69.2269 -4.0822 -3.27741 105.728 21.2256 0.74796 1.17283e-014 3.18055e-015 6.36111e-015 10.5979 16.9168 -2.52568 5.97744e-006 -3.40164e-006 -2.99999 8.02894 -4.95145 0.697685 -62.7516 -5.47478 3.61911 -110.294 21.5681 8.0989 8.85011e-006 -2.62089e-006 3.04584e-006 -14.1856 13.832 2.36395 5.12419e-006 -6.30407e-006 3.00001 -8.0289 -4.95141 -0.697699 177.233 -0.916452 2.98785 180 7.01525e-015 178.83 178.012 6.11022 179.669 3.02929e-006 2.93655e-007 0.0522245 -18.346 67.4337 19.0701 8.13442 25.2328 -3.48685 -175.929 1.46612 -0.966299 4.54188e-006 -4.6773e-006 -1.12146 -2.14663 -9.89509 0.0777158 -1.36568e-006 -1.61706e-006 -0.19138 20.0233 69.4868 -20.8528 -8.13123 25.233 3.48549 
53.5177 97.1042 34.6962 0.467911 -3.30498 1.69459 -0.116438 -0.911576 -0.166249 -0.236613 2.18 -0.315467 -0.232777 3.82506 -0.311793 -3.85018 8.07952 0.0930957 5.56442 10.0746 -0.712067 69.2312 -4.08829 -3.28075 105.73 21.2449 0.740523 -1.09332e-014 -6.36111e-015 -1.59028e-015 10.5995 16.8997 -2.5239 5.97744e-006 -3.40164e-006 -2.99999 8.02894 -4.95145 0.697685 -62.7515 -5.46226 3.61192 -110.32 21.6048 8.13336 8.85011e-006 -2.62089e-006 3.04584e-006 -14.2014 13.7669 2.35467 5.12419e-006 -6.30407e-006 3.00001 -8.0289 -4.95141 -0.697699 177.236 -0.911851 2.98343 180 7.01525e-015 178.83 178.018 6.12194 179.668 3.02929e-006 2.93655e-007 0.0522245 -18.347 67.435 19.0712 8.13442 25.2328 -3.48685 -175.931 1.46799 -0.964914 4.54188e-006 -4.6773e-006 -1.12146 -2.14515 -9.90333 0.0777277 -1.36568e-006 -1.61706e-006 -0.191382 20.0226 69.4861 -20.8521 -8.13123 25.233 3.48549 
53.5269 97.1004 34.6861 0.467952 -3.30957 1.69194 -0.115909 -0.908543 -0.166054 -0.235951 2.18607 -0.315962 -0.23213 3.83112 -0.312292 -3.84318 8.05597 0.0894902 5.55716 10.0932 -0.714399 69.2345 -4.09373 -3.28371 105.734 21.2647 0.734466 3.47873e-014 -3.18055e-015 1.35174e-014 10.5995 16.8794 -2.52158 5.97744e-006 -3.40164e-006 -2.99999 8.02894 -4.95145 0.697685 -62.7514 -5.45058 3.60521 -110.345 21.6406 8.16781 8.85011e-006 -2.62089e-006 3.04584e-006 -14.2176 13.7021 2.34545 5.12419e-006 -6.30407e-006 3.00001 -8.0289 -4.95141 -0.697699 177.239 -0.906479 2.97823 180 7.01525e-015 178.83 178.024 6.13324 179.668 3.02929e-006 2.93655e-007 0.0522245 -18.3476 67.4358 19.0719 8.13442 25.2328 -3.48685 -175.931 1.47101 -0.964298 4.54188e-006 -4.6773e-006 -1.12146 -2.14402 -9.91238 0.0777394 -1.36568e-006 -1.61706e-006 -0.191387 20.0222 69.4857 -20.8516 -8.13123 25.233 3.48549 
